<?xml version="1.0" encoding="UTF-8"?>
<svg xmlns="http://www.w3.org/2000/svg" xmlns:xlink="http://www.w3.org/1999/xlink" width="3001" height="3001" viewBox="0 0 3001 3001">
<path fill-rule="evenodd" fill="rgb(94.921875%, 94.921875%, 94.921875%)" fill-opacity="1" d="M 0.921875 0.929688 L 3000.921875 0.929688 L 3000.921875 3000.925781 L 0.921875 3000.925781 L 0.921875 0.929688 "/>
<path fill-rule="evenodd" fill="rgb(0%, 0%, 0%)" fill-opacity="1" d="M 1974.300781 1993.929688 C 1969.738281 1993.929688 1967.460938 1993.929688 1962.890625 1991.648438 C 1958.328125 1989.359375 1953.761719 1982.519531 1951.480469 1977.949219 L 1723.238281 1112.910156 C 1720.960938 1101.5 1727.800781 1087.800781 1739.210938 1085.519531 L 1997.128906 1014.769531 C 2003.980469 1012.480469 2008.539062 1014.769531 2015.390625 1017.050781 C 2019.949219 1019.328125 2024.519531 1026.179688 2026.800781 1030.75 L 2159.179688 1535.160156 L 2159.179688 1537.449219 L 2184.289062 1631.019531 C 2184.289062 1631.019531 2184.289062 1631.019531 2184.289062 1633.308594 L 2204.828125 1715.480469 C 2207.121094 1717.761719 2207.121094 1720.039062 2207.121094 1722.320312 L 2232.21875 1815.898438 C 2232.21875 1818.191406 2232.21875 1820.46875 2232.21875 1822.75 L 2250.480469 1895.789062 C 2252.769531 1907.199219 2245.921875 1920.898438 2234.511719 1923.179688 L 1976.589844 1993.929688 C 1978.871094 1993.929688 1976.589844 1993.929688 1974.300781 1993.929688 Z M 1981.148438 1907.199219 L 1990.28125 1941.429688 L 2204.828125 1884.371094 L 2195.699219 1850.140625 Z M 1958.328125 1813.621094 L 1972.019531 1863.828125 L 2186.570312 1806.769531 L 2172.878906 1756.558594 Z M 1933.21875 1722.320312 L 1944.628906 1767.96875 L 2159.179688 1710.910156 L 2147.769531 1665.261719 Z M 1908.109375 1628.738281 L 1921.808594 1678.949219 L 2136.359375 1621.890625 L 2122.660156 1571.679688 Z M 1773.449219 1119.761719 L 1896.699219 1583.089844 L 2111.25 1526.03125 L 1988 1062.699219 Z M 1686.71875 1993.929688 L 1417.390625 1993.929688 C 1403.691406 1993.929688 1394.570312 1984.800781 1394.570312 1971.109375 L 1394.570312 1030.75 C 1394.570312 1017.050781 1403.691406 1007.921875 1417.390625 1007.921875 L 1686.71875 1007.921875 C 1700.410156 1007.921875 1709.539062 1017.050781 1709.539062 1030.75 L 1709.539062 1971.109375 C 1709.539062 1982.519531 1698.128906 1993.929688 1686.71875 1993.929688 Z M 1440.21875 1948.28125 L 1663.890625 1948.28125 L 1663.890625 1765.691406 L 1440.21875 1765.691406 Z M 1440.21875 1717.761719 L 1663.890625 1717.761719 L 1663.890625 1669.820312 L 1440.21875 1669.820312 Z M 1440.21875 1624.179688 L 1663.890625 1624.179688 L 1663.890625 1521.46875 L 1440.21875 1521.46875 Z M 1440.21875 1475.820312 L 1663.890625 1475.820312 L 1663.890625 1183.671875 L 1440.21875 1183.671875 Z M 1440.21875 1135.738281 L 1663.890625 1135.738281 L 1663.890625 1051.289062 L 1440.21875 1051.289062 Z M 1362.609375 1993.929688 L 1093.289062 1993.929688 C 1079.589844 1993.929688 1070.460938 1984.800781 1070.460938 1971.109375 L 1070.460938 1030.75 C 1070.460938 1017.050781 1079.589844 1007.921875 1093.289062 1007.921875 L 1362.609375 1007.921875 C 1376.308594 1007.921875 1385.441406 1017.050781 1385.441406 1030.75 L 1385.441406 1971.109375 C 1385.441406 1982.519531 1376.308594 1993.929688 1362.609375 1993.929688 Z M 1116.109375 1948.28125 L 1339.789062 1948.28125 L 1339.789062 1765.691406 L 1116.109375 1765.691406 Z M 1116.109375 1717.761719 L 1339.789062 1717.761719 L 1339.789062 1669.820312 L 1116.109375 1669.820312 Z M 1116.109375 1624.179688 L 1339.789062 1624.179688 L 1339.789062 1521.46875 L 1116.109375 1521.46875 Z M 1116.109375 1475.820312 L 1339.789062 1475.820312 L 1339.789062 1183.671875 L 1116.109375 1183.671875 Z M 1116.109375 1135.738281 L 1339.789062 1135.738281 L 1339.789062 1051.289062 L 1116.109375 1051.289062 Z M 1043.070312 1993.929688 L 773.746094 1993.929688 C 760.050781 1993.929688 750.921875 1984.800781 750.921875 1971.109375 L 750.921875 1030.75 C 750.921875 1017.050781 760.050781 1007.921875 773.746094 1007.921875 L 1043.070312 1007.921875 C 1056.769531 1007.921875 1065.898438 1017.050781 1065.898438 1030.75 L 1065.898438 1971.109375 C 1065.898438 1982.519531 1056.769531 1993.929688 1043.070312 1993.929688 Z M 798.851562 1948.28125 L 1022.53125 1948.28125 L 1022.53125 1765.691406 L 798.851562 1765.691406 Z M 798.851562 1717.761719 L 1022.53125 1717.761719 L 1022.53125 1669.820312 L 798.851562 1669.820312 Z M 798.851562 1624.179688 L 1022.53125 1624.179688 L 1022.53125 1521.46875 L 798.851562 1521.46875 Z M 798.851562 1475.820312 L 1022.53125 1475.820312 L 1022.53125 1183.671875 L 798.851562 1183.671875 Z M 798.851562 1135.738281 L 1022.53125 1135.738281 L 1022.53125 1051.289062 L 798.851562 1051.289062 Z M 1924.089844 1546.570312 C 1914.960938 1546.570312 1905.828125 1539.730469 1901.269531 1530.601562 L 1800.839844 1156.28125 C 1798.558594 1144.871094 1805.398438 1131.171875 1816.808594 1128.890625 L 1946.910156 1094.660156 C 1958.328125 1092.371094 1972.019531 1099.21875 1974.300781 1110.628906 L 2079.289062 1484.949219 C 2081.578125 1491.800781 2079.289062 1496.359375 2077.011719 1503.210938 C 2074.730469 1507.769531 2067.878906 1512.339844 2063.308594 1514.621094 C 2028.128906 1523.570312 1954.851562 1546.570312 1924.089844 1546.570312 Z M 1853.328125 1165.410156 L 1940.070312 1494.078125 L 2029.078125 1471.25 L 1937.789062 1142.578125 L 1853.328125 1165.410156 "/>
</svg>
